# xmcd
#
# Track frame offsets: 
#        150
#        10767
#        28750
#        45210
#        56367
#        79297
#        90845
#        102845
#        117567
#        133587
#        146542
#        160432
#        179470
#        195347
#        214020
#        230659
#        245472
#        259960
#
# Disc length: 3702 seconds
#
# Revision: 1
# Processed by: cddbd v1.5.2PL0 Copyright (c) Steve Scherf et al.
# Submitted via: ExactAudioCopy v1.0b1
#
DISCID=ee0e7412
DTITLE=B.B. and the Blues Shacks - Straight Blues Big Swing -Swing Editi
DTITLE=on-
DYEAR=1999
DGENRE=Blues
TTITLE0=Hay Ride
TTITLE1=Things Won't Be Right Without You
TTITLE2=Alright, Okay, You Win
TTITLE3=Safronia B.
TTITLE4=Sufferin' Mind
TTITLE5=Love You 'Til Your Money's Gone Blues
TTITLE6=Sad Stories
TTITLE7=Telephone Boogie
TTITLE8=I Feel Alright Again
TTITLE9=I Want A Roof Over My Head
TTITLE10=Why Me
TTITLE11=The Way You Do
TTITLE12=It Should've Been Me
TTITLE13=Cadillac Baby
TTITLE14=Good Luck
TTITLE15=Everyday I Have To Cry Some
TTITLE16=If I Told You Once
TTITLE17=Pony Tail
EXTD=
EXTT0=
EXTT1=
EXTT2=
EXTT3=
EXTT4=
EXTT5=
EXTT6=
EXTT7=
EXTT8=
EXTT9=
EXTT10=
EXTT11=
EXTT12=
EXTT13=
EXTT14=
EXTT15=
EXTT16=
EXTT17=
PLAYORDER=
